<svg width="30" height="30" viewBox="0 0 30 30" fill="none" xmlns="http://www.w3.org/2000/svg">
<path d="M10 8.75C10 10.0761 10.5268 11.3479 11.4645 12.2855C12.4021 13.2232 13.6739 13.75 15 13.75C16.3261 13.75 17.5979 13.2232 18.5355 12.2855C19.4732 11.3479 20 10.0761 20 8.75C20 7.42392 19.4732 6.15215 18.5355 5.21447C17.5979 4.27678 16.3261 3.75 15 3.75C13.6739 3.75 12.4021 4.27678 11.4645 5.21447C10.5268 6.15215 10 7.42392 10 8.75Z" stroke="#414141" stroke-width="1.5" stroke-linecap="round" stroke-linejoin="round"/>
<path d="M7.5 26.25V23.75C7.5 22.4239 8.02678 21.1521 8.96447 20.2145C9.90215 19.2768 11.1739 18.75 12.5 18.75H16.875" stroke="#414141" stroke-width="1.5" stroke-linecap="round" stroke-linejoin="round"/>
<path d="M23.025 19.5111C23.2688 19.2673 23.5582 19.0739 23.8767 18.942C24.1952 18.8101 24.5365 18.7422 24.8813 18.7422C25.226 18.7422 25.5673 18.8101 25.8858 18.942C26.2043 19.0739 26.4937 19.2673 26.7375 19.5111C26.9813 19.7548 27.1746 20.0442 27.3066 20.3627C27.4385 20.6812 27.5064 21.0226 27.5064 21.3673C27.5064 21.7121 27.4385 22.0534 27.3066 22.3719C27.1746 22.6904 26.9813 22.9798 26.7375 23.2236L22.5 27.4986H18.75V23.7486L23.025 19.5111Z" stroke="#414141" stroke-width="1.5" stroke-linecap="round" stroke-linejoin="round"/>
</svg>
