<svg width="46" height="46" viewBox="0 0 46 46" fill="none" xmlns="http://www.w3.org/2000/svg">
<g id="Frame" clip-path="url(#clip0_3_31)">
<path id="Vector" d="M15.333 13.4167C15.333 15.45 16.1407 17.4 17.5785 18.8378C19.0163 20.2756 20.9663 21.0833 22.9997 21.0833C25.033 21.0833 26.983 20.2756 28.4208 18.8378C29.8586 17.4 30.6663 15.45 30.6663 13.4167C30.6663 11.3833 29.8586 9.43329 28.4208 7.99551C26.983 6.55774 25.033 5.75 22.9997 5.75C20.9663 5.75 19.0163 6.55774 17.5785 7.99551C16.1407 9.43329 15.333 11.3833 15.333 13.4167Z" stroke="#0455BF" stroke-width="2" stroke-linecap="round" stroke-linejoin="round"/>
<path id="Vector_2" d="M11.5 40.25V36.4167C11.5 34.3833 12.3077 32.4333 13.7455 30.9955C15.1833 29.5577 17.1333 28.75 19.1667 28.75H26.8333C28.8667 28.75 30.8167 29.5577 32.2545 30.9955C33.6923 32.4333 34.5 34.3833 34.5 36.4167V40.25" stroke="#0455BF" stroke-width="2" stroke-linecap="round" stroke-linejoin="round"/>
</g>
<defs>
<clipPath id="clip0_3_31">
<rect width="46" height="46" fill="white"/>
</clipPath>
</defs>
</svg>
