<svg width="22" height="13" viewBox="0 0 22 13" fill="none" xmlns="http://www.w3.org/2000/svg">
<path d="M21 6.5C18.3333 10.1671 15 12 11 12C7 12 3.66667 10.1671 1 6.5" stroke="#515151" stroke-width="2" stroke-linecap="round" stroke-linejoin="round"/>
<path d="M0.999994 6.5C3.66666 2.83287 7 0.999999 11 0.999999C15 0.999999 18.3333 2.83287 21 6.5" stroke="#515151" stroke-width="2" stroke-linecap="round" stroke-linejoin="round"/>
<ellipse cx="11" cy="5.125" rx="3.75" ry="4.125" fill="#515151"/>
<path d="M13.4636 3.67485C13.6629 4.16713 13.5688 4.69139 13.2535 4.84583C12.9381 5.00026 12.521 4.72639 12.3217 4.23412C12.1225 3.74184 12.2166 3.21758 12.5319 3.06314C12.8472 2.90871 13.2644 3.18258 13.4636 3.67485Z" fill="white"/>
</svg>
