<svg width="31" height="31" viewBox="0 0 31 31" fill="none" xmlns="http://www.w3.org/2000/svg">
<g clip-path="url(#clip0_267_1658)">
<path d="M5.1665 9.04297H25.8332" stroke="white" stroke-width="1.5" stroke-linecap="round" stroke-linejoin="round"/>
<path d="M12.9165 14.207V21.957" stroke="white" stroke-width="1.5" stroke-linecap="round" stroke-linejoin="round"/>
<path d="M18.0835 14.207V21.957" stroke="white" stroke-width="1.5" stroke-linecap="round" stroke-linejoin="round"/>
<path d="M6.4585 9.04297L7.75016 24.543C7.75016 25.2281 8.02233 25.8852 8.5068 26.3697C8.99127 26.8541 9.64835 27.1263 10.3335 27.1263H20.6668C21.352 27.1263 22.0091 26.8541 22.4935 26.3697C22.978 25.8852 23.2502 25.2281 23.2502 24.543L24.5418 9.04297" stroke="white" stroke-width="1.5" stroke-linecap="round" stroke-linejoin="round"/>
<path d="M11.625 9.04167V5.16667C11.625 4.8241 11.7611 4.49555 12.0033 4.25332C12.2456 4.01109 12.5741 3.875 12.9167 3.875H18.0833C18.4259 3.875 18.7544 4.01109 18.9967 4.25332C19.2389 4.49555 19.375 4.8241 19.375 5.16667V9.04167" stroke="white" stroke-width="1.5" stroke-linecap="round" stroke-linejoin="round"/>
</g>
<defs>
<clipPath id="clip0_267_1658">
<rect width="31" height="31" fill="white"/>
</clipPath>
</defs>
</svg>
