<svg width="22" height="23" viewBox="0 0 22 23" fill="none" xmlns="http://www.w3.org/2000/svg">
<path d="M4.43538 19.6246C3.94852 19.6231 3.53229 19.439 3.18667 19.0722C2.84105 18.7054 2.669 18.2652 2.67053 17.7516L2.7093 4.67732C2.71083 4.16369 2.88548 3.7245 3.23327 3.35976C3.58106 2.99502 3.99838 2.81338 4.48524 2.81482L10.6816 2.8332L10.6761 4.70095L4.4797 4.68257L4.44092 17.7568L16.8337 17.7936L16.8531 11.2564L18.6234 11.2617L18.6041 17.7988C18.6025 18.3125 18.4279 18.7516 18.0801 19.1164C17.7323 19.4811 17.315 19.6628 16.8281 19.6613L4.43538 19.6246ZM8.61048 14.6874L7.37509 13.3763L15.6332 4.71565L12.4465 4.7062L12.452 2.83845L18.6484 2.85683L18.629 9.39395L16.8586 9.3887L16.8686 6.02675L8.61048 14.6874Z" fill="#3B82F6"/>
</svg>
