<svg width="44" height="44" viewBox="0 0 44 44" fill="none" xmlns="http://www.w3.org/2000/svg">
<g clip-path="url(#clip0_261_1054)">
<path d="M16.5013 9.1665H12.8346C11.8622 9.1665 10.9295 9.55281 10.2419 10.2404C9.55428 10.9281 9.16797 11.8607 9.16797 12.8332V34.8332C9.16797 35.8056 9.55428 36.7383 10.2419 37.4259C10.9295 38.1135 11.8622 38.4998 12.8346 38.4998H31.168C32.1404 38.4998 33.0731 38.1135 33.7607 37.4259C34.4483 36.7383 34.8346 35.8056 34.8346 34.8332V12.8332C34.8346 11.8607 34.4483 10.9281 33.7607 10.2404C33.0731 9.55281 32.1404 9.1665 31.168 9.1665H27.5013" stroke="#0455BF" stroke-width="2" stroke-linecap="round" stroke-linejoin="round"/>
<path d="M16.5 9.16667C16.5 8.19421 16.8863 7.26157 17.5739 6.57394C18.2616 5.88631 19.1942 5.5 20.1667 5.5H23.8333C24.8058 5.5 25.7384 5.88631 26.4261 6.57394C27.1137 7.26157 27.5 8.19421 27.5 9.16667C27.5 10.1391 27.1137 11.0718 26.4261 11.7594C25.7384 12.447 24.8058 12.8333 23.8333 12.8333H20.1667C19.1942 12.8333 18.2616 12.447 17.5739 11.7594C16.8863 11.0718 16.5 10.1391 16.5 9.16667Z" stroke="#0455BF" stroke-width="2" stroke-linecap="round" stroke-linejoin="round"/>
<path d="M18.332 25.6665H25.6654" stroke="#0455BF" stroke-width="2" stroke-linecap="round" stroke-linejoin="round"/>
<path d="M22 22V29.3333" stroke="#0455BF" stroke-width="2" stroke-linecap="round" stroke-linejoin="round"/>
</g>
<defs>
<clipPath id="clip0_261_1054">
<rect width="44" height="44" fill="white"/>
</clipPath>
</defs>
</svg>
